#!OML:ASF X:\für Bonn\!DataBase\2005_08_10_Bjorn_Final\c3d\bjorn.ASF
:FULLY-SPECIFIED
:DEGREES
316
root -0.93328 2.23835 19.9364 -423.922 -171.057 3.18283
lowerback 41.8409 3.93249 12.8714
upperback 26.4609 -2.6307 3.50421
thorax 10.7355 -5.40373 -3.04415
lowerneck -3.75925 11.6286 6.38524
upperneck 13.5133 16.4085 -12.0586
head 6.25314 7.38959 -3.59585
rclavicle -3.48681e-014 -6.83322e-015
rhumerus -244.004 -175.731 91.112
rradius 63.4347
rwrist -65.2984
rhand -28.372 -22.8976
rfingers 7.12502
rthumb -1.74518 -52.8702
lclavicle -3.48681e-014 -6.83322e-015
lhumerus -421.682 -35.2711 -268.241
lradius 38.0201
lwrist 37.4549
lhand -27.6503 1.50743
lfingers 7.12502
lthumb -1.04812 31.4846
rfemur -270.956 -140.181 196.591
rtibia 125.398
rfoot 25.9394 8.78337
rtoes -5.18339
lfemur -89.416 8.80461 -28.4941
ltibia 121.686
lfoot 10.4595 5.44159
ltoes -0.153975
317
root -0.937527 2.24824 19.9314 -423.917 -171.065 3.29789
lowerback 42.2652 3.7741 13.0794
upperback 26.3112 -2.69068 3.49687
thorax 10.4465 -5.42372 -3.0929
lowerneck -4.41394 11.7784 6.36791
upperneck 13.8894 16.6596 -12.172
head 6.51936 7.45621 -3.55638
rclavicle -2.15868e-015 -1.36664e-016
rhumerus -244.044 -175.442 91.2479
rradius 63.0449
rwrist -64.8424
rhand -28.1077 -22.6139
rfingers 7.12502
rthumb -1.48997 -52.5884
lclavicle -2.15868e-015 -1.36664e-016
lhumerus -421.115 -34.8063 -268.574
lradius 37.295
lwrist 36.8137
lhand -27.3301 1.37199
lfingers 7.12502
lthumb -0.738896 31.3505
rfemur -270.752 -140.358 196.511
rtibia 125.307
rfoot 26.1001 8.6447
rtoes -5.25955
lfemur -88.9921 9.14674 -29.0871
ltibia 121.191
lfoot 10.4627 6.35883
ltoes -1.38541
318
root -0.941395 2.25786 19.9253 -423.923 -171.083 3.41177
lowerback 42.7422 3.60626 13.2645
upperback 26.1381 -2.75852 3.48141
thorax 10.1143 -5.45414 -3.12974
lowerneck -4.81958 11.9074 6.37942
upperneck 14.1036 16.8763 -12.343
head 6.69663 7.51931 -3.55926
rclavicle -1.76111e-015 4.71865e-014
rhumerus -244.125 -175.193 91.4008
rradius 62.6429
rwrist -64.3333
rhand -27.8404 -22.35
rfingers 7.12502
rthumb -1.23176 -52.3262
lclavicle -1.76111e-015 4.71865e-014
lhumerus -420.727 -34.3396 -268.82
lradius 36.6614
lwrist 36.2416
lhand -27.0061 1.25596
lfingers 7.12502
lthumb -0.426011 31.2353
rfemur -270.549 -140.511 196.44
rtibia 125.243
rfoot 26.2092 8.48832
rtoes -5.24522
lfemur -88.5939 9.56537 -29.6556
ltibia 120.742
lfoot 10.8308 7.02204
ltoes -2.84226
319
root -0.946265 2.26831 19.9209 -423.933 -171.071 3.51425
lowerback 43.2348 3.44645 13.4351
upperback 25.9864 -2.83537 3.47011
thorax 9.80723 -5.49783 -3.15432
lowerneck -5.08082 12.0043 6.39699
upperneck 14.1374 17.0435 -12.5627
head 6.79214 7.57061 -3.59423
rclavicle 4.64286e-014 -2.58265e-014
rhumerus -244.207 -174.951 91.5678
rradius 62.2794
rwrist -63.8372
rhand -27.5026 -22.0838
rfingers 7.12502
rthumb -0.905545 -52.0617
lclavicle 4.64286e-014 -2.58265e-014
lhumerus -420.446 -33.9612 -268.956
lradius 36.1082
lwrist 35.8121
lhand -26.6922 1.04238
lfingers 7.12502
lthumb -0.122788 31.0221
rfemur -270.363 -140.624 196.33
rtibia 125.199
rfoot 26.3185 8.39718
rtoes -5.37762
lfemur -88.1768 9.98695 -30.2326
ltibia 120.315
lfoot 11.5593 7.43704
ltoes -4.3611
320
root -0.950966 2.27787 19.9147 -423.94 -171.09 3.62774
lowerback 43.7496 3.28914 13.5991
upperback 25.8244 -2.91196 3.48434
thorax 9.48739 -5.55003 -3.14491
lowerneck -5.25308 12.0865 6.35959
upperneck 14.092 17.186 -12.7607
head 6.83796 7.6161 -3.6236
rclavicle -3.02898e-014 2.61029e-014
rhumerus -244.297 -174.757 91.7693
rradius 61.9593
rwrist -63.3533
rhand -27.2267 -21.8852
rfingers 7.12502
rthumb -0.639023 -51.8639
lclavicle -3.02898e-014 2.61029e-014
lhumerus -420.222 -33.5482 -269.052
lradius 35.5657
lwrist 35.3864
lhand -26.3054 0.831551
lfingers 7.12502
lthumb 0.25078 30.8111
rfemur -270.188 -140.73 196.261
rtibia 125.167
rfoot 26.398 8.25464
rtoes -5.47391
lfemur -87.7899 10.4599 -30.7264
ltibia 119.928
lfoot 12.467 7.648
ltoes -5.50261
321
root -0.955787 2.288 19.9072 -423.944 -171.088 3.74679
lowerback 44.2679 3.12219 13.766
upperback 25.6694 -3 3.47837
thorax 9.17728 -5.60601 -3.15539
lowerneck -5.42102 12.1765 6.39903
upperneck 14.0611 17.3374 -12.9808
head 6.89788 7.6679 -3.66957
rclavicle 3.34269e-014 -1.68718e-014
rhumerus -244.395 -174.557 91.9561
rradius 61.6264
rwrist -62.8336
rhand -26.8702 -21.5861
rfingers 7.12502
rthumb -0.294686 -51.5656
lclavicle 3.34269e-014 -1.68718e-014
lhumerus -419.903 -33.0679 -269.267
lradius 34.9437
lwrist 34.8154
lhand -25.9206 0.561172
lfingers 7.12502
lthumb 0.622474 30.54
rfemur -270.029 -140.792 196.175
rtibia 125.155
rfoot 26.457 8.16389
rtoes -5.54412
lfemur -87.3666 10.9014 -31.1663
ltibia 119.557
lfoot 13.4588 7.721
ltoes -6.31176
322
root -0.960633 2.29762 19.899 -423.936 -171.089 3.85985
lowerback 44.801 2.96427 13.8937
upperback 25.506 -3.09 3.48859
thorax 8.85512 -5.67319 -3.12554
lowerneck -5.50588 12.2799 6.39842
upperneck 13.957 17.5058 -13.2128
head 6.91972 7.73178 -3.71727
rclavicle 4.64783e-014 -3.69243e-014
rhumerus -244.538 -174.449 92.1574
rradius 61.3647
rwrist -62.3854
rhand -26.5556 -21.3115
rfingers 7.12502
rthumb 0.00909714 -51.2912
lclavicle 4.64783e-014 -3.69243e-014
lhumerus -419.602 -32.5762 -269.418
lradius 34.3036
lwrist 34.2395
lhand -25.5576 0.295701
lfingers 7.12502
lthumb 0.973006 30.2732
rfemur -269.925 -140.847 196.116
rtibia 125.162
rfoot 26.5101 8.06821
rtoes -5.70473
lfemur -86.9468 11.344 -31.5234
ltibia 119.205
lfoot 14.5583 7.6655
ltoes -6.75882
323
root -0.966326 2.30691 19.8883 -423.946 -171.101 3.99105
lowerback 46.4492 2.56361 14.2558
upperback 24.4819 -3.12153 3.2385
thorax 8.3382 -5.74892 -3.08583
lowerneck -5.61588 12.4088 6.45268
upperneck 13.8429 17.7113 -13.4914
head 6.95685 7.81257 -3.78087
rclavicle 3.95085e-015 -2.6339e-015
rhumerus -244.65 -174.352 92.335
rradius 61.1341
rwrist -61.9836
rhand -26.2409 -21.0466
rfingers 7.12502
rthumb 0.313123 -51.0261
lclavicle 3.95085e-015 -2.6339e-015
lhumerus -419.258 -32.0622 -269.639
lradius 33.6773
lwrist 33.5446
lhand -25.1293 0.162923
lfingers 7.12502
lthumb 1.38669 30.1382
rfemur -269.784 -140.879 196.055
rtibia 125.175
rfoot 26.5001 7.99155
rtoes -6.04529
lfemur -86.4822 11.8008 -31.7811
ltibia 118.876
lfoot 15.7328 7.33562
ltoes -7.24879
